<svg width="61" height="61" viewBox="0 0 61 61" fill="none" xmlns="http://www.w3.org/2000/svg">
<path d="M45.2581 7.87097H24.5968V5.90323H25.5807C26.125 5.90323 26.5645 5.46221 26.5645 4.91935V0.983871C26.5645 0.441013 26.125 0 25.5807 0H11.8065C11.2622 0 10.8226 0.441013 10.8226 0.983871V4.91935C10.8226 5.46221 11.2622 5.90323 11.8065 5.90323H12.7903V8.54498C10.4676 9.65279 8.85484 12.0178 8.85484 14.7581V54.1129C8.85484 57.9095 11.9453 61 15.7419 61H45.2581C49.0547 61 52.1452 57.9095 52.1452 54.1129V14.7581C52.1452 10.9605 49.0547 7.87097 45.2581 7.87097ZM50.1774 14.7581V30.0926L46.2419 26.1571V16.7258C46.2419 15.0987 44.9175 13.7742 43.2903 13.7742H33.859L29.9235 9.83871H45.2581C47.9704 9.83871 50.1774 12.0457 50.1774 14.7581ZM44.2742 24.1894L35.8267 15.7419H43.2903C43.8332 15.7419 44.2742 16.1839 44.2742 16.7258V24.1894ZM12.7903 1.96774H24.5968V3.93548H12.7903V1.96774ZM14.7581 5.90323H22.629V7.87097H15.7419C15.4076 7.87097 15.0809 7.90364 14.7581 7.94975V5.90323ZM45.2581 59.0323H15.7419C13.0296 59.0323 10.8226 56.8253 10.8226 54.1129V14.7581C10.8226 12.0457 13.0296 9.83871 15.7419 9.83871H27.141L50.1774 32.8751V54.1129C50.1774 56.8253 47.9704 59.0323 45.2581 59.0323Z" fill="#204205"/>
<path d="M26.2763 12.0946C26.0923 11.9097 25.8425 11.8064 25.5807 11.8064H16.7258C14.5554 11.8064 12.7903 13.5714 12.7903 15.7419V53.129C12.7903 55.2994 14.5554 57.0645 16.7258 57.0645H44.2742C46.4447 57.0645 48.2097 55.2994 48.2097 53.129V34.4354C48.2097 34.1736 48.1064 33.9238 47.9215 33.7398L26.2763 12.0946ZM46.242 53.129C46.242 54.2142 45.3594 55.0967 44.2742 55.0967H16.7258C15.6406 55.0967 14.7581 54.2142 14.7581 53.129V15.7419C14.7581 14.6566 15.6406 13.7741 16.7258 13.7741H25.1733L46.242 34.8428V53.129Z" fill="#204205"/>
<path d="M22.629 44.0263C22.629 47.6587 25.2323 50.7059 28.6836 51.1123C28.9564 51.1435 29.2298 51.1603 29.5003 51.1603C31.1879 51.1603 32.8256 50.5473 34.0901 49.4227C35.5611 48.116 36.4032 46.24 36.4032 44.2742V44.0263C36.4032 42.0922 35.9142 40.1735 34.9884 38.4771L30.3799 30.0287C30.0354 29.396 28.9968 29.396 28.6523 30.0287L24.0438 38.4762C23.1181 40.1735 22.629 42.0922 22.629 44.0263ZM25.7713 39.4187L29.5161 32.5552L33.2609 39.4207C34.029 40.8278 34.4355 42.4208 34.4355 44.0263V44.2742C34.4355 45.6779 33.8335 47.0183 32.7824 47.9517C31.7188 48.8976 30.3424 49.3252 28.9142 49.158C26.4939 48.8726 24.5968 46.6186 24.5968 44.0263C24.5968 42.4208 25.0032 40.8278 25.7713 39.4187Z" fill="#204205"/>
<path d="M33.4516 44.2742H31.4838C31.4838 45.3594 30.6013 46.2419 29.5161 46.2419V48.2097C31.6866 48.2097 33.4516 46.4446 33.4516 44.2742Z" fill="#204205"/>
</svg>
