<svg width="59" height="59" viewBox="0 0 59 59" fill="none" xmlns="http://www.w3.org/2000/svg">
<path d="M51.5629 51.1168L39.0865 20.7062C38.3946 19.0191 38.0435 17.2392 38.0435 15.4157V7.37725C38.0435 6.51164 38.3807 5.6978 38.9929 5.08562C39.7392 4.33929 40.1506 3.34675 40.1506 2.29118V1.15234C40.1506 0.515854 39.6343 0 38.9983 0H22.9091C22.2726 0 21.7568 0.515854 21.7568 1.15234V2.29118C21.7568 3.34675 22.1678 4.33929 22.9141 5.08562C23.5263 5.6978 23.8634 6.51164 23.8634 7.3777V15.4157C23.8634 17.2392 23.5128 19.0191 22.8204 20.7062L19.3922 29.0625C19.3909 29.0656 19.3895 29.0688 19.3882 29.0719L10.3441 51.1168C9.61981 52.8827 9.82192 54.8835 10.8851 56.4684C11.9484 58.0538 13.7223 59 15.6309 59H46.276C48.1846 59 49.959 58.0538 51.0223 56.4684C52.085 54.8831 52.2871 52.8827 51.5629 51.1168ZM24.9527 21.5808C25.7594 19.6151 26.1681 17.5408 26.1681 15.4157V7.37725C26.1681 5.89631 25.5915 4.50359 24.544 3.45613C24.2361 3.14824 24.0651 2.73952 24.0615 2.30469H37.8459C37.8423 2.73952 37.6713 3.14779 37.3629 3.45613C36.3159 4.50359 35.7388 5.89586 35.7388 7.37725V15.4153C35.7388 17.5404 36.148 19.6146 36.9542 21.5803L39.7365 28.3621H22.1705L24.9527 21.5808ZM49.1078 55.1847C48.4641 56.1448 47.432 56.6953 46.276 56.6953H15.6309C14.4754 56.6953 13.4432 56.1448 12.7991 55.1847C12.3134 54.4604 12.128 53.6204 12.254 52.7922H14.1527C14.7887 52.7922 15.305 52.2759 15.305 51.6399C15.305 51.0034 14.7887 50.4875 14.1527 50.4875H13.0939L14.4173 47.2609H16.361C16.9975 47.2609 17.5134 46.7446 17.5134 46.1086C17.5134 45.4721 16.9975 44.9563 16.361 44.9563H15.3631L16.6865 41.7297H18.6851C19.3216 41.7297 19.8374 41.2134 19.8374 40.5774C19.8374 39.9409 19.3216 39.425 18.6851 39.425H17.6322L18.956 36.1984H21.0087C21.6451 36.1984 22.161 35.6821 22.161 35.0461C22.161 34.4096 21.6451 33.8938 21.0087 33.8938H19.9013L21.2252 30.6672H40.6818L49.4306 51.9919C49.869 53.0609 49.7515 54.225 49.1078 55.1847Z" fill="#204205"/>
<path d="M45.8723 51.1888C45.631 50.5996 44.9585 50.3178 44.3693 50.5586C43.7805 50.7999 43.4983 51.4724 43.7391 52.0616L43.7454 52.076C43.9281 52.5221 44.358 52.7922 44.8122 52.7922C44.9576 52.7922 45.1052 52.7647 45.2484 52.7062C45.8372 52.4649 46.1194 51.792 45.8781 51.2032L45.8723 51.1888Z" fill="#204205"/>
<path d="M44.2437 47.2186L40.1169 37.1599C39.8756 36.5711 39.2027 36.2893 38.6135 36.531C38.0247 36.7723 37.7433 37.4457 37.9846 38.0345L42.1115 48.0932C42.2942 48.5393 42.7241 48.8085 43.1783 48.8085C43.3237 48.8085 43.4718 48.781 43.6149 48.722C44.2037 48.4808 44.4855 47.8074 44.2437 47.2186Z" fill="#204205"/>
</svg>
