<svg width="66" height="66" viewBox="0 0 66 66" fill="none" xmlns="http://www.w3.org/2000/svg">
<g clip-path="url(#clip0)">
<path d="M46.0442 13.8418C42.6413 10.3966 38.1024 8.46504 33.2639 8.4021C28.3559 8.33815 23.7158 10.2113 20.1955 13.6757C16.6773 17.138 14.7316 21.7454 14.717 26.6494C14.7014 31.9572 16.987 37.0047 20.9876 40.4977C23.8839 43.0265 25.5451 46.6228 25.5451 50.3631V59.5975C25.5451 63.1278 28.4173 66 31.9476 66H34.0962C37.6261 66 40.4982 63.1278 40.4982 59.5975V50.4814C40.4982 46.6344 42.1277 43.023 44.9692 40.5728C49.0091 37.0898 51.3264 32.0347 51.3264 26.7053C51.3264 21.8582 49.4507 17.2896 46.0442 13.8418ZM33.0056 35.9845H32.1506C31.6833 35.9845 31.3031 35.6043 31.3031 35.1365C31.3031 34.6693 31.6833 34.2891 32.1506 34.2891C32.6219 34.2891 33.0056 34.6728 33.0056 35.1441V35.9845ZM33.0217 43.6459C33.7327 43.6459 34.3107 44.2239 34.3107 44.9349V49.3177H31.7326V44.9349C31.7326 44.2239 32.3107 43.6459 33.0217 43.6459ZM37.9201 51.8959V53.7917H28.1232V51.8959H37.9201ZM28.1232 56.3698H37.9201V58.2656H28.1232V56.3698ZM34.0957 63.4219H31.9476C30.2749 63.4219 28.8509 62.3423 28.3327 60.8438H37.7106C37.1925 62.3423 35.7685 63.4219 34.0957 63.4219ZM43.2858 38.6205C40.1654 41.311 38.2625 45.1595 37.9619 49.3177H36.8889V44.9349C36.8889 43.7838 36.3828 42.7496 35.5827 42.0406C35.5827 42.035 35.5837 42.0295 35.5837 42.0235V37.7867C36.6336 37.0334 37.3184 35.8027 37.3184 34.415V32.4184C37.3184 29.6721 35.0842 27.4374 32.3374 27.4374H30.014C29.302 27.4374 28.725 28.0145 28.725 28.7265C28.725 29.4385 29.302 30.0155 30.014 30.0155H32.3374C33.6627 30.0155 34.7403 31.0936 34.7403 32.4184V32.8928C34.1103 32.1692 33.1833 31.711 32.1506 31.711C30.2618 31.711 28.725 33.2478 28.725 35.1371C28.725 37.0258 30.2618 38.5626 32.1506 38.5626H33.0056V41.0682C30.8806 41.0768 29.1545 42.808 29.1545 44.9349V49.3177H28.0875C27.805 45.2144 25.8709 41.3386 22.6835 38.5556C19.2453 35.5545 17.2815 31.2175 17.2951 26.6574C17.3077 22.4468 18.98 18.489 22.0042 15.5131C25.03 12.5352 29.0135 10.9248 33.2301 10.9802C41.7868 11.091 48.7482 18.1456 48.7482 26.7053C48.7482 31.2845 46.7572 35.627 43.2858 38.6205Z" fill="#204205"/>
<path d="M33.282 14.6722H33.2618C32.5513 14.6651 31.9728 15.2346 31.9642 15.9461C31.9561 16.6581 32.5327 17.2423 33.2447 17.2503H33.2643H33.2799C33.9844 17.2503 34.5539 16.6833 34.562 15.9764C34.5705 15.2643 33.994 14.6807 33.282 14.6722Z" fill="#204205"/>
<path d="M38.9524 16.1848C38.33 15.8384 37.545 16.0619 37.1986 16.6843C36.8526 17.3062 37.0757 18.0912 37.6981 18.4376C40.6977 20.1079 42.5608 23.2757 42.5608 26.7053C42.5608 27.4173 43.1378 27.9943 43.8498 27.9943C44.5618 27.9943 45.1389 27.4173 45.1389 26.7053C45.1389 22.3411 42.7682 18.3103 38.9524 16.1848Z" fill="#204205"/>
<path d="M33.0217 6.05859C33.7337 6.05859 34.3107 5.48154 34.3107 4.76953V1.28906C34.3107 0.577057 33.7337 0 33.0217 0C32.3097 0 31.7326 0.577057 31.7326 1.28906V4.76953C31.7326 5.48154 32.3097 6.05859 33.0217 6.05859Z" fill="#204205"/>
<path d="M58.4378 25.4161H54.9573C54.2453 25.4161 53.6683 25.9932 53.6683 26.7052C53.6683 27.4172 54.2453 27.9943 54.9573 27.9943H58.4378C59.1498 27.9943 59.7269 27.4172 59.7269 26.7052C59.7269 25.9932 59.1498 25.4161 58.4378 25.4161Z" fill="#204205"/>
<path d="M11.0859 25.4161H7.60547C6.89346 25.4161 6.31641 25.9932 6.31641 26.7052C6.31641 27.4172 6.89346 27.9943 7.60547 27.9943H11.0859C11.7979 27.9943 12.375 27.4172 12.375 26.7052C12.375 25.9932 11.7979 25.4161 11.0859 25.4161Z" fill="#204205"/>
<path d="M49.4441 41.3049C48.9406 40.8014 48.1243 40.8014 47.6208 41.3049C47.1178 41.8079 47.1178 42.6242 47.6208 43.1277L50.0821 45.589C50.3339 45.8403 50.6637 45.9667 50.9935 45.9667C51.3233 45.9667 51.6532 45.8403 51.9049 45.589C52.4085 45.0855 52.4085 44.2692 51.9049 43.7657L49.4441 41.3049Z" fill="#204205"/>
<path d="M16.5992 12.1056C16.851 12.3574 17.1808 12.4833 17.5106 12.4833C17.8404 12.4833 18.1708 12.3574 18.422 12.1056C18.9256 11.6026 18.9256 10.7863 18.422 10.2828L15.9612 7.82149C15.4577 7.31845 14.6414 7.31845 14.1379 7.82149C13.6344 8.32503 13.6349 9.14127 14.1379 9.64481L16.5992 12.1056Z" fill="#204205"/>
<path d="M50.0821 7.822L47.6213 10.2828C47.1178 10.7863 47.1178 11.6026 47.6213 12.1061C47.8731 12.3579 48.2029 12.4838 48.5327 12.4838C48.8625 12.4838 49.1924 12.3579 49.4441 12.1061L51.9049 9.64481C52.4085 9.14127 52.4085 8.32503 51.9049 7.8215C51.4019 7.31796 50.5856 7.31846 50.0821 7.822Z" fill="#204205"/>
<path d="M16.5992 41.3049L14.1384 43.7657C13.6349 44.2692 13.6349 45.0855 14.1384 45.589C14.3902 45.8403 14.72 45.9667 15.0498 45.9667C15.3796 45.9667 15.7094 45.8403 15.9612 45.589L18.422 43.1277C18.9256 42.6242 18.9256 41.8079 18.422 41.3049C17.919 40.8014 17.1027 40.8014 16.5992 41.3049Z" fill="#204205"/>
</g>
<defs>
<clipPath id="clip0">
<rect width="66" height="66" fill="white"/>
</clipPath>
</defs>
</svg>
