<svg width="61" height="61" viewBox="0 0 61 61" fill="none" xmlns="http://www.w3.org/2000/svg">
<g clip-path="url(#clip0)">
<path d="M59.9834 19.3165H52.8668C52.3054 19.3165 51.8502 19.7717 51.8502 20.3331V23.3831H42.7003V22.3664C42.7003 21.805 42.2451 21.3498 41.6836 21.3498H37.617V16.2665C37.617 15.705 37.1618 15.2498 36.6003 15.2498H33.5504V9.1499H36.4987L42.5793 10.3699C44.9353 10.8409 47.2269 9.3127 47.6979 6.95672C48.1689 4.60075 46.6407 2.30908 44.2847 1.83811C43.7219 1.72565 43.1423 1.72565 42.5794 1.83811L36.4987 3.04997H33.5504V1.01666C33.5504 0.455208 33.0952 0 32.5337 0H28.4671C27.9057 0 27.4504 0.455208 27.4504 1.01666V3.04997H24.5021L18.4205 1.82998C16.0645 1.35622 13.7706 2.88209 13.2968 5.23807C12.8231 7.59404 14.3489 9.888 16.7049 10.3618C16.9866 10.4184 17.2732 10.447 17.5605 10.4472C17.8494 10.447 18.1374 10.4184 18.4206 10.3618L24.5021 9.1499H27.4504V15.2498H24.4005C23.839 15.2498 23.3838 15.705 23.3838 16.2665V21.3498H19.3172C18.7557 21.3498 18.3005 21.805 18.3005 22.3664V24.3997H13.2173C5.92148 24.4081 0.00911983 30.3205 0.000732422 37.6163V43.7162C0.000732422 44.2777 0.45594 44.7329 1.01739 44.7329H11.1839C11.7454 44.7329 12.2006 44.2777 12.2006 43.7162V37.6163C12.2006 37.0548 12.6558 36.5996 13.2173 36.5996H18.3005V38.6329C18.3005 39.1944 18.7557 39.6496 19.3172 39.6496H41.6836C42.2451 39.6496 42.7003 39.1944 42.7003 38.6329V37.6163H51.8502V40.6662C51.8502 41.2277 52.3054 41.6829 52.8668 41.6829H59.9834C60.5449 41.6829 61.0001 41.2277 61.0001 40.6662V20.3331C61.0001 19.7717 60.5449 19.3165 59.9834 19.3165ZM33.5504 5.08328H36.6003C36.6687 5.08392 36.7368 5.07705 36.8037 5.06295L42.9829 3.82771C44.2379 3.57749 45.458 4.39195 45.7082 5.64689C45.9584 6.90182 45.1439 8.12194 43.889 8.37216C43.5899 8.43176 43.2819 8.43176 42.9828 8.37216L36.8036 7.13693C36.7367 7.12282 36.6686 7.11596 36.6002 7.11659H33.5503V5.08328H33.5504ZM18.3005 34.5663H13.2173C11.5328 34.5663 10.1673 35.9318 10.1673 37.6163V42.6996H2.03404V37.6163C2.04129 31.443 7.044 26.4403 13.2173 26.4331H18.3005V34.5663ZM29.4838 2.03331H31.5171V3.04997H29.4838V2.03331ZM29.4838 5.08328H31.5171V7.11659H29.4838V5.08328ZM29.4838 9.1499H31.5171V15.2498H29.4838V9.1499ZM24.4005 7.11659C24.3321 7.11596 24.264 7.12282 24.1971 7.13693L18.0179 8.37216C16.763 8.62239 15.5429 7.80792 15.2926 6.55298C15.0424 5.29805 15.8569 4.07793 17.1118 3.82771C17.411 3.76811 17.7189 3.76811 18.018 3.82771L24.1973 5.06295C24.2641 5.07705 24.3322 5.08392 24.4006 5.08328H27.4506V7.11659H24.4005ZM25.4171 17.2832H35.5837V21.3498H25.4171V17.2832ZM40.667 37.6163H20.3339V23.3831H40.667V37.6163ZM51.8502 35.583H42.7003V25.4164H51.8502V35.583ZM58.9668 39.6496H53.8835V21.3498H58.9668V39.6496Z" fill="#204205"/>
<path d="M10.6285 54.0444L6.99602 47.301C6.68365 46.8062 6.0293 46.6586 5.5347 46.9709C5.40152 47.0551 5.2888 47.1678 5.20467 47.301L1.57216 54.0444C0.801022 55.4605 0.839782 57.1795 1.67382 58.5594C2.61181 60.1006 4.29641 61.0292 6.10034 60.9994C7.90427 61.0292 9.58887 60.1006 10.5269 58.5594C11.3609 57.1794 11.3997 55.4605 10.6285 54.0444ZM8.78228 57.5163C8.20876 58.4411 7.18816 58.9927 6.10034 58.9661C5.01252 58.9927 3.99192 58.4411 3.4184 57.5163C2.94909 56.7514 2.92812 55.7929 3.3635 55.0082L6.10034 49.9249L8.83718 55.0082C9.27256 55.7929 9.25159 56.7514 8.78228 57.5163Z" fill="#204205"/>
</g>
<defs>
<clipPath id="clip0">
<rect width="61" height="61" fill="white"/>
</clipPath>
</defs>
</svg>
