<svg width="61" height="61" viewBox="0 0 61 61" fill="none" xmlns="http://www.w3.org/2000/svg">
<path d="M35.3152 15.7423C35.1711 15.0339 34.8589 14.3974 34.4506 13.8331L42.9762 5.59567C43.3724 5.7878 43.8047 5.90787 44.261 5.90787C45.8941 5.90787 47.215 4.58701 47.215 2.95394C47.215 1.32087 45.9061 0 44.273 0C42.64 0 41.3191 1.32087 41.3191 2.95394C41.3191 3.39823 41.4272 3.8185 41.6073 4.19075L32.9976 12.5002C32.2652 12.0679 31.4126 11.7917 30.5 11.7917C29.8396 11.7917 29.2152 11.9238 28.6508 12.164L20.3774 4.17874C20.5575 3.79449 20.6656 3.38622 20.6656 2.94193C20.6656 1.32087 19.3327 0 17.7116 0C16.0785 0 14.7577 1.32087 14.7577 2.95394C14.7577 4.58701 16.0785 5.90787 17.7116 5.90787C18.1799 5.90787 18.6122 5.7878 18.9965 5.59567L26.9817 13.3047C26.3333 13.9652 25.877 14.8057 25.6848 15.7423H0V59.0307H3.93858V61H5.90787V59.0307H55.1041V61H57.0734V59.0307H61V15.7423H35.3152ZM44.273 1.96929C44.8134 1.96929 45.2577 2.41358 45.2577 2.95394C45.2577 3.49429 44.8134 3.93858 44.273 3.93858C43.7327 3.93858 43.2884 3.49429 43.2884 2.95394C43.2884 2.41358 43.7327 1.96929 44.273 1.96929ZM17.7116 3.93858C17.1713 3.93858 16.727 3.49429 16.727 2.95394C16.727 2.41358 17.1713 1.96929 17.7116 1.96929C18.252 1.96929 18.6963 2.41358 18.6963 2.95394C18.6963 3.49429 18.252 3.93858 17.7116 3.93858ZM30.5 13.773C31.7848 13.773 32.8656 14.6016 33.2738 15.7423H27.7382C28.1344 14.6016 29.2152 13.773 30.5 13.773ZM59.0307 57.0614H1.96929V17.7116H59.0307V57.0614Z" fill="#204205"/>
<path d="M42.3037 21.6382H10.8191C8.10532 21.6382 5.89587 23.8476 5.89587 26.5614V48.1996C5.90788 50.9254 8.10532 53.1228 10.8191 53.1228H42.3037C45.0175 53.1228 47.227 50.9134 47.227 48.1996V26.5614C47.227 23.8476 45.0175 21.6382 42.3037 21.6382ZM45.2577 48.1996C45.2577 49.8327 43.9368 51.1535 42.3037 51.1535H10.8191C9.18603 51.1535 7.86517 49.8327 7.86517 48.1996V26.5614C7.86517 24.9283 9.18603 23.6075 10.8191 23.6075H42.3037C43.9368 23.6075 45.2577 24.9283 45.2577 26.5614V48.1996Z" fill="#204205"/>
<path d="M53.1349 23.6075C50.9614 23.6075 49.1963 25.3727 49.1963 27.5461C49.1963 29.7196 50.9614 31.4847 53.1349 31.4847C55.3083 31.4847 57.0735 29.7196 57.0735 27.5461C57.0735 25.3727 55.3083 23.6075 53.1349 23.6075ZM53.1349 29.5154C52.0542 29.5154 51.1656 28.6388 51.1656 27.5461C51.1656 26.4654 52.0422 25.5768 53.1349 25.5768C54.2156 25.5768 55.1042 26.4534 55.1042 27.5461C55.1042 28.6268 54.2276 29.5154 53.1349 29.5154Z" fill="#204205"/>
<path d="M49.1963 33.454V43.2884H57.0614V33.454H49.1963ZM55.0921 41.3191H51.1536V35.4233H55.0921V41.3191Z" fill="#204205"/>
<path d="M52.1502 45.2577H50.1809V47.227H52.1502V45.2577Z" fill="#204205"/>
<path d="M56.0768 45.2577H54.1075V47.227H56.0768V45.2577Z" fill="#204205"/>
<path d="M52.1502 49.1963H50.1809V51.1656H52.1502V49.1963Z" fill="#204205"/>
<path d="M56.0768 49.1963H54.1075V51.1656H56.0768V49.1963Z" fill="#204205"/>
</svg>
