<svg width="61" height="61" viewBox="0 0 61 61" fill="none" xmlns="http://www.w3.org/2000/svg">
<path d="M41.1812 28.6888C41.177 28.6888 41.1729 28.6888 41.1687 28.6888H36.0602V23.5678C36.0671 22.5349 35.2354 21.692 34.2026 21.6851C34.1984 21.6851 34.1941 21.6851 34.1901 21.6851H26.8098C25.777 21.6851 24.9396 22.5224 24.9396 23.5552V28.6762H19.8312C18.7984 28.6693 17.9554 29.5008 17.9485 30.5337C17.9485 30.5421 17.9485 30.5505 17.9485 30.5589V37.9266C17.9485 38.9594 18.7858 39.7968 19.8187 39.7968H24.9396V44.9052C24.9327 45.938 25.7644 46.781 26.7973 46.7879C26.8015 46.7879 26.8057 46.7879 26.8098 46.7879H34.1775C35.2103 46.7879 36.0477 45.9506 36.0477 44.9178V39.7968H41.1687C42.2015 39.8037 43.0445 38.972 43.0514 37.9392C43.0514 37.9349 43.0514 37.9307 43.0514 37.9266V30.5589C43.0514 29.5261 42.2142 28.6888 41.1812 28.6888ZM40.5411 37.2865H34.8051C34.1119 37.2865 33.5499 37.8485 33.5499 38.5416V44.2776H27.4499V38.5416C27.4499 37.8485 26.8879 37.2865 26.1948 37.2865H20.4588V31.199H26.1948C26.8879 31.199 27.4499 30.6371 27.4499 29.9439V24.1953H33.5374V29.9314C33.5374 30.6245 34.0994 31.1865 34.7925 31.1865H40.5411V37.2865Z" fill="#204205"/>
<path d="M52.3395 12.2966H41.9971V7.8785C42.0622 5.86243 40.4806 4.1752 38.4645 4.11009C38.3618 4.10679 38.259 4.10774 38.1564 4.11307H22.8436C20.8291 4.00811 19.111 5.55601 19.0059 7.57036C19.0005 7.67297 18.9994 7.77574 19.0029 7.8785V12.2715H8.66049C4.66914 12.2715 0 14.5433 0 20.932V48.2314C0 54.6201 4.66914 56.8919 8.66049 56.8919H52.3395C56.3309 56.8919 61 54.6201 61 48.2314V20.9571C61 14.5684 56.3434 12.2966 52.3395 12.2966ZM21.5132 7.8785C21.5132 7.51451 21.5132 6.5355 22.8562 6.5355H38.1564C39.4994 6.5355 39.4994 7.50196 39.4994 7.8785V12.2715H21.5132V7.8785ZM58.4897 48.2314C58.4897 53.7791 54.1971 54.3816 52.3395 54.3816H8.66049C6.81543 54.3816 2.51029 53.7791 2.51029 48.2314V20.9571C2.51029 15.4094 6.80288 14.8069 8.66049 14.8069H52.3395C54.1846 14.8069 58.4897 15.4094 58.4897 20.9571V48.2314Z" fill="#204205"/>
</svg>
