<svg width="224" height="58" viewBox="0 0 224 58" fill="none" xmlns="http://www.w3.org/2000/svg">
<mask id="mask0" mask-type="alpha" maskUnits="userSpaceOnUse" x="62" y="18" width="162" height="31">
<path d="M71.3518 48.432C68.1838 48.432 65.9278 47.604 64.5838 45.948C63.2638 44.268 62.6038 41.856 62.6038 38.712V28.2C62.6038 24.984 63.2638 22.56 64.5838 20.928C65.9038 19.272 68.1598 18.444 71.3518 18.444C74.3998 18.444 76.5598 19.176 77.8318 20.64C79.1038 22.104 79.7398 24.18 79.7398 26.868V29.388H73.4398V26.472C73.4398 25.344 73.3198 24.48 73.0798 23.88C72.8398 23.28 72.2638 22.98 71.3518 22.98C70.4398 22.98 69.8398 23.304 69.5518 23.952C69.2638 24.576 69.1198 25.452 69.1198 26.58V40.296C69.1198 41.448 69.2638 42.336 69.5518 42.96C69.8638 43.56 70.4638 43.86 71.3518 43.86C72.2398 43.86 72.8038 43.56 73.0438 42.96C73.3078 42.336 73.4398 41.448 73.4398 40.296V37.236H79.7398V39.756C79.7398 42.492 79.1038 44.628 77.8318 46.164C76.5598 47.676 74.3998 48.432 71.3518 48.432ZM83.393 18.84H89.837V30.396H90.485L94.769 18.84H101.177L95.849 32.52L101.357 48H94.733L90.485 35.292H89.837V48H83.393V18.84ZM121.126 48.36C118.078 48.36 115.918 47.628 114.646 46.164C113.374 44.676 112.738 42.6 112.738 39.936V38.388H119.038V40.296C119.038 41.448 119.158 42.324 119.398 42.924C119.638 43.5 120.214 43.788 121.126 43.788C122.038 43.788 122.626 43.476 122.89 42.852C123.178 42.204 123.322 41.304 123.322 40.152V35.04H118.498V31.8H123.322V26.472C123.322 25.32 123.166 24.444 122.854 23.844C122.566 23.22 121.99 22.908 121.126 22.908C120.238 22.908 119.662 23.22 119.398 23.844C119.158 24.444 119.038 25.32 119.038 26.472V28.488H112.738V27.048C112.738 24.312 113.374 22.176 114.646 20.64C115.918 19.104 118.078 18.336 121.126 18.336C124.294 18.336 126.538 19.176 127.858 20.856C129.202 22.512 129.874 24.924 129.874 28.092V38.568C129.874 41.784 129.202 44.22 127.858 45.876C126.538 47.532 124.294 48.36 121.126 48.36ZM133.913 18.84H140.357V30.396H141.005L145.289 18.84H151.697L146.369 32.52L151.877 48H145.253L141.005 35.292H140.357V48H133.913V18.84ZM162.758 48.432C159.614 48.432 157.37 47.628 156.026 46.02C154.682 44.388 154.01 41.988 154.01 38.82V27.984C154.01 24.816 154.682 22.44 156.026 20.856C157.37 19.248 159.614 18.444 162.758 18.444C165.926 18.444 168.182 19.248 169.526 20.856C170.894 22.464 171.578 24.84 171.578 27.984V38.82C171.578 41.988 170.894 44.388 169.526 46.02C168.182 47.628 165.926 48.432 162.758 48.432ZM162.758 43.86C163.67 43.86 164.27 43.56 164.558 42.96C164.846 42.336 164.99 41.496 164.99 40.44V26.4C164.99 25.32 164.846 24.48 164.558 23.88C164.27 23.28 163.67 22.98 162.758 22.98C161.894 22.98 161.318 23.292 161.03 23.916C160.742 24.516 160.598 25.344 160.598 26.4V40.44C160.598 41.496 160.73 42.336 160.994 42.96C161.258 43.56 161.846 43.86 162.758 43.86ZM178.128 23.628H173.736V18.84H188.964V23.628H184.608V48H178.128V23.628ZM191.531 18.84H204.635V23.232H197.975V30.468H203.051V34.932H197.975V43.644H204.707V48H191.531V18.84ZM211.377 32.304L205.977 18.84H212.061L215.265 26.724L217.857 18.84H223.221L218.109 33.996L223.797 48H217.749L214.185 39.288L211.053 48H205.725L211.377 32.304Z" fill="#125A40"/>
</mask>
<g mask="url(#mask0)">
<rect x="19" y="-156" width="441" height="331" fill="#F0F0F0"/>
</g>
<mask id="mask1" mask-type="alpha" maskUnits="userSpaceOnUse" x="0" y="0" width="37" height="54">
<path d="M30.1115 53.197L0 0H13.4944L36.6914 41.8215L30.1115 53.197Z" fill="#577E21"/>
</mask>
<g mask="url(#mask1)">
<rect x="-102.6" y="-72.6001" width="264.6" height="198.6" fill="white"/>
</g>
<path d="M39.9256 35.0186L20.1858 0.111572H33.5687L47.0631 23.4201L39.9256 35.0186Z" fill="#125A40"/>
<path d="M46.5056 0H60L54.3123 9.81412C52.8847 12.5799 51.0409 13.197 50.2974 13.1598C47.0855 13.3383 45.9108 11.0037 45.7249 9.81412C47.0632 4.72862 52.0074 2.9368 54.3123 2.67658C50.4758 1.33829 46.5427 4.94424 45.0558 6.91449H44.0521C42.0892 2.36431 44.8699 0.408922 46.5056 0Z" fill="#125A40"/>
</svg>
