<svg width="55" height="55" viewBox="0 0 55 55" fill="none" xmlns="http://www.w3.org/2000/svg">
<g clip-path="url(#clip0)">
<path d="M42.4808 20.0033C40.5945 18.117 38.0863 17.0781 35.4186 17.0781C32.7509 17.0781 30.2427 18.1171 28.3564 20.0033C24.4623 23.8975 24.4623 30.2336 28.3564 34.1278C30.3034 36.0748 32.861 37.0482 35.4186 37.0482C37.9762 37.0482 40.5337 36.0748 42.4808 34.1278C46.375 30.2337 46.375 23.8976 42.4808 20.0033ZM40.7131 32.36C39.2532 33.8199 37.3362 34.5498 35.4187 34.5495C33.5016 34.5494 31.5838 33.8195 30.1243 32.36C27.2049 29.4407 27.2049 24.6906 30.1243 21.7712C31.5384 20.3571 33.4187 19.578 35.4187 19.578C37.4187 19.578 39.299 20.357 40.7131 21.7712C43.6325 24.6905 43.6325 29.4406 40.7131 32.36Z" fill="white"/>
<path d="M36.5464 44.0388H8.30318C7.61278 44.0388 7.05322 44.5986 7.05322 45.2888C7.05322 45.979 7.61289 46.5387 8.30318 46.5387H36.5464C37.2368 46.5387 37.7963 45.979 37.7963 45.2888C37.7963 44.5986 37.2368 44.0388 36.5464 44.0388Z" fill="white"/>
<path d="M41.434 45.0448C41.4177 44.9649 41.394 44.8862 41.3627 44.8098C41.3315 44.7348 41.2927 44.6623 41.2477 44.5948C41.2027 44.5261 41.1502 44.4624 41.0927 44.4048C40.8027 44.1148 40.3702 43.9809 39.9639 44.0623C39.8852 44.0786 39.8064 44.1022 39.7302 44.1334C39.6552 44.1647 39.5827 44.2036 39.5152 44.2486C39.4465 44.2947 39.3827 44.3472 39.3252 44.4049C39.2677 44.4624 39.2152 44.5262 39.1689 44.5949C39.1239 44.6624 39.0864 44.7349 39.0551 44.8099C39.0239 44.8862 38.9988 44.9649 38.9826 45.0449C38.9664 45.1251 38.9589 45.2076 38.9589 45.2887C38.9589 45.3699 38.9664 45.4526 38.9826 45.5324C38.9988 45.6123 39.0239 45.6912 39.0551 45.7662C39.0864 45.8424 39.1239 45.9148 39.1689 45.9823C39.2152 46.0511 39.2676 46.115 39.3252 46.1724C39.3827 46.2299 39.4465 46.2824 39.5152 46.3274C39.5827 46.3723 39.6552 46.4112 39.7302 46.4425C39.8064 46.4737 39.8852 46.4974 39.9639 46.5136C40.0451 46.5299 40.1276 46.5386 40.2089 46.5386C40.2902 46.5386 40.3726 46.53 40.4527 46.5136C40.5327 46.4974 40.6114 46.4737 40.6864 46.4425C40.7627 46.4112 40.8352 46.3723 40.9027 46.3274C40.9714 46.2824 41.0351 46.2299 41.0927 46.1724C41.1503 46.115 41.2027 46.0511 41.2477 45.9823C41.2927 45.9148 41.3315 45.8424 41.3627 45.7662C41.394 45.6911 41.4177 45.6124 41.434 45.5324C41.4502 45.4524 41.459 45.3699 41.459 45.2887C41.4589 45.2074 41.4502 45.1248 41.434 45.0448Z" fill="white"/>
<path d="M52.6183 42.4973L47.9176 37.7966V34.7272C49.3225 32.4448 50.0743 29.8132 50.0743 27.0656C50.0743 24.3181 49.3224 21.6864 47.9176 19.4041V1.24985C47.9176 0.559774 47.358 0 46.6676 0H18.0158C18.0016 0 17.9878 0.00161133 17.9738 0.00214843C17.9594 0.00268554 17.9452 0.00322265 17.9308 0.00429687C17.8784 0.00784178 17.8269 0.01375 17.7765 0.0235253C17.7746 0.023955 17.7727 0.0240625 17.7709 0.0243847C17.7159 0.0352343 17.6626 0.0505956 17.6104 0.0686425C17.6003 0.0721874 17.5903 0.0759471 17.5803 0.0795995C17.5318 0.0977537 17.4846 0.117949 17.4392 0.141689C17.4353 0.14373 17.4312 0.145342 17.4272 0.14749C17.379 0.173271 17.3333 0.202705 17.289 0.234502C17.2785 0.242021 17.2683 0.249863 17.2579 0.257705C17.2143 0.291113 17.1721 0.326347 17.1332 0.364911C17.1329 0.365449 17.1323 0.365663 17.1318 0.3662L2.38187 15.1163C2.38155 15.1166 2.38112 15.1171 2.3808 15.1177C2.34191 15.1567 2.30668 15.1989 2.27327 15.2427C2.26553 15.2528 2.2578 15.2629 2.25039 15.2733C2.21859 15.3176 2.18905 15.3636 2.16316 15.4118C2.16112 15.4154 2.15983 15.4193 2.15779 15.423C2.13405 15.4686 2.11353 15.5161 2.09538 15.5648C2.09162 15.5749 2.08775 15.5848 2.08421 15.595C2.06637 15.647 2.05091 15.7003 2.04006 15.7552C2.03952 15.7576 2.03941 15.7599 2.03898 15.7622C2.02931 15.8119 2.02351 15.8631 2.01997 15.9148C2.019 15.9296 2.01825 15.9442 2.01771 15.9591C2.01718 15.9729 2.01556 15.9865 2.01556 16.0004V53.7503C2.01556 54.4406 2.57523 55.0002 3.26552 55.0002H46.6675C47.3579 55.0002 47.9175 54.4404 47.9175 53.7503V41.3323L50.8505 44.2651C51.0945 44.5091 51.4145 44.6312 51.7344 44.6312C52.0543 44.6312 52.3743 44.5091 52.6183 44.2651C53.1065 43.7769 53.1065 42.9854 52.6183 42.4973ZM16.7658 4.26786V14.75H6.28375L16.7658 4.26786ZM45.4182 52.4999H45.4176H4.5158V17.25H18.0158C18.7062 17.25 19.2658 16.6902 19.2658 16V2.50002H45.4176V16.3502C45.3921 16.3265 45.3661 16.3036 45.3404 16.28C45.2903 16.2337 45.2401 16.1878 45.1893 16.1424C45.1548 16.1115 45.1201 16.081 45.0854 16.0505C45.0237 15.9962 44.9616 15.9422 44.8991 15.8891C44.8768 15.8702 44.8545 15.8515 44.8321 15.8327C44.7542 15.7672 44.6758 15.7026 44.597 15.6389C44.5915 15.6344 44.586 15.63 44.5803 15.6257C41.9891 13.5423 38.7911 12.4099 35.4185 12.4099C31.6562 12.4099 28.1105 13.8187 25.3829 16.3859C25.3614 16.4062 25.3395 16.4257 25.3181 16.4461C25.3014 16.462 25.285 16.4786 25.2684 16.4948C25.1971 16.5633 25.1257 16.6322 25.0554 16.7026C23.8447 17.9132 22.8916 19.2851 22.194 20.7494C20.2882 24.7489 20.2963 29.4392 22.2181 33.4328C22.9136 34.8781 23.8587 36.2324 25.0554 37.429C25.1441 37.5178 25.2338 37.605 25.3241 37.691C25.3434 37.7093 25.363 37.7269 25.3822 37.7451C25.4533 37.8118 25.5244 37.8785 25.5964 37.9435C25.6284 37.9724 25.6608 38.0002 25.6929 38.0288C25.7531 38.0822 25.8129 38.1357 25.8737 38.1879C25.911 38.2199 25.9488 38.2508 25.9865 38.2825C26.0429 38.3299 26.099 38.3778 26.1559 38.4241C26.1966 38.4574 26.2379 38.4895 26.2789 38.5222C26.3333 38.5656 26.3874 38.6093 26.4422 38.6518C26.4857 38.6856 26.5298 38.7183 26.5736 38.7514C26.6265 38.7917 26.6795 38.8322 26.733 38.8715C26.7786 38.9051 26.8246 38.9377 26.8705 38.9705C26.9229 39.0081 26.975 39.0462 27.0277 39.0829C27.0749 39.1159 27.1225 39.1478 27.17 39.1801C27.2222 39.2158 27.2742 39.2517 27.3268 39.2865C27.3751 39.3185 27.424 39.3496 27.4728 39.3811C27.5249 39.4147 27.577 39.4488 27.6294 39.4817C27.6794 39.5129 27.7297 39.5434 27.7799 39.574C27.8317 39.6056 27.8835 39.6375 27.9356 39.6685C27.987 39.6991 28.0391 39.7287 28.0909 39.7586C28.1422 39.7882 28.1935 39.8181 28.2451 39.8471C28.2979 39.8768 28.3511 39.9054 28.4041 39.9343C28.4556 39.9624 28.507 39.9906 28.5586 40.0178C28.6122 40.0462 28.6661 40.0735 28.7199 40.1012C28.7716 40.1277 28.8232 40.1543 28.8751 40.18C28.9299 40.2073 28.9848 40.2337 29.0399 40.2602C29.0913 40.2852 29.1428 40.31 29.1944 40.3343C29.2501 40.3603 29.3059 40.3855 29.3618 40.4107C29.4136 40.4342 29.4651 40.4576 29.517 40.4804C29.5734 40.5051 29.63 40.5291 29.6867 40.5531C29.7384 40.575 29.79 40.5968 29.8419 40.6181C29.8993 40.6416 29.9571 40.6646 30.0148 40.6874C30.0662 40.7077 30.1177 40.728 30.1693 40.7476C30.2278 40.77 30.2865 40.7917 30.3451 40.8133C30.3964 40.8322 30.4477 40.8508 30.4993 40.8691C30.5584 40.8901 30.6177 40.9105 30.677 40.9307C30.7286 40.9482 30.7802 40.9657 30.832 40.9827C30.8917 41.0023 30.9516 41.0213 31.0115 41.04C31.0629 41.0561 31.1145 41.0721 31.166 41.0876C31.2265 41.1059 31.2873 41.1236 31.348 41.1411C31.3994 41.1558 31.4508 41.1704 31.5023 41.1846C31.5635 41.2015 31.625 41.2179 31.6864 41.234C31.7376 41.2475 31.7889 41.2606 31.8401 41.2734C31.9022 41.289 31.9644 41.3041 32.0266 41.3187C32.0775 41.3307 32.1284 41.3424 32.1795 41.3539C32.2423 41.3681 32.3053 41.3817 32.3681 41.3951C32.419 41.4058 32.4698 41.4163 32.5208 41.4264C32.584 41.4391 32.6471 41.4513 32.7103 41.463C32.7613 41.4725 32.8122 41.4816 32.8632 41.4907C32.9268 41.5018 32.9906 41.5127 33.0543 41.523C33.105 41.5313 33.1558 41.5391 33.2066 41.5467C33.2709 41.5565 33.335 41.5658 33.3993 41.5748C33.4497 41.5817 33.5001 41.5883 33.5506 41.5947C33.6156 41.603 33.6805 41.611 33.7456 41.6184C33.7955 41.624 33.8456 41.6292 33.8957 41.6345C33.9613 41.6413 34.0267 41.6478 34.0923 41.6537C34.1419 41.6582 34.1917 41.6622 34.2414 41.6662C34.3074 41.6714 34.3734 41.6766 34.4395 41.6809C34.4889 41.6841 34.5383 41.6869 34.5877 41.6896C34.6542 41.6934 34.7206 41.697 34.7871 41.6998C34.8362 41.702 34.8855 41.7035 34.9346 41.7051C35.0012 41.7073 35.0678 41.7094 35.1346 41.7105C35.1836 41.7114 35.2326 41.7118 35.2816 41.7123C35.3272 41.7126 35.373 41.7139 35.4185 41.7139C35.4399 41.7139 35.4613 41.7132 35.4827 41.7131C35.5313 41.7129 35.5798 41.7121 35.6285 41.7114C35.6957 41.7105 35.7631 41.7094 35.8303 41.7075C35.8785 41.7061 35.9268 41.7043 35.975 41.7024C36.0428 41.6998 36.1105 41.6972 36.1782 41.6938C36.2257 41.6913 36.2732 41.6883 36.3208 41.6853C36.3891 41.681 36.4574 41.6769 36.5256 41.6718C36.5725 41.6682 36.6194 41.664 36.6664 41.6601C36.735 41.6544 36.8036 41.6486 36.8721 41.6417C36.9187 41.6371 36.9652 41.6317 37.0118 41.6266C37.0807 41.6191 37.1495 41.6118 37.2183 41.6034C37.2642 41.5979 37.31 41.5913 37.3559 41.5853C37.425 41.5762 37.4943 41.567 37.5632 41.5569C37.6084 41.5503 37.6536 41.5429 37.6987 41.5358C37.7684 41.5249 37.838 41.5142 37.9077 41.5023C37.9518 41.4947 37.9955 41.4864 38.0393 41.4785C38.1098 41.4657 38.1801 41.4533 38.2506 41.4395C38.2936 41.4311 38.3363 41.4219 38.3792 41.4131C38.4503 41.3985 38.5214 41.3842 38.5923 41.3686C38.6338 41.3595 38.6751 41.3495 38.7167 41.34C38.7887 41.3235 38.8608 41.3072 38.9324 41.2897C38.9721 41.2799 39.0114 41.2693 39.0509 41.2593C39.1244 41.2407 39.1981 41.2221 39.2713 41.2022C39.3072 41.1925 39.3429 41.1818 39.3785 41.1718C39.4551 41.1505 39.5318 41.1293 39.608 41.1067C39.6381 41.0978 39.668 41.0881 39.6981 41.079C39.7799 41.0541 39.8615 41.0294 39.9428 41.0032C39.9574 40.9984 39.972 40.9932 39.9867 40.9885C40.2914 40.8891 40.5934 40.7794 40.8923 40.6595C40.9038 40.6549 40.9154 40.6506 40.9271 40.6459C40.9981 40.6173 41.0685 40.5871 41.1392 40.5574C41.1774 40.5413 41.2158 40.5258 41.2538 40.5093C41.3174 40.4818 41.3806 40.4529 41.4439 40.4244C41.4883 40.4044 41.533 40.3852 41.5771 40.3647C41.637 40.3371 41.6965 40.3081 41.756 40.2796C41.8034 40.2569 41.8509 40.2348 41.898 40.2117C41.9546 40.1839 42.0109 40.1547 42.0673 40.1261C42.1169 40.1008 42.1667 40.0762 42.2161 40.0505C42.2705 40.022 42.3247 39.9923 42.3789 39.9629C42.4295 39.9356 42.4803 39.9088 42.5305 39.8809C42.5833 39.8517 42.6355 39.8213 42.688 39.7915C42.7393 39.7621 42.791 39.7332 42.842 39.7031C42.8932 39.6731 42.9438 39.642 42.9946 39.6114C43.0463 39.5802 43.0983 39.5491 43.1498 39.5173C43.1996 39.4863 43.2492 39.4545 43.2987 39.4227C43.3506 39.3897 43.4025 39.3568 43.4539 39.3231C43.5026 39.2912 43.5507 39.2583 43.599 39.2259C43.6509 39.191 43.7028 39.1563 43.7543 39.1206C43.8017 39.0877 43.8489 39.0539 43.8962 39.0204C43.9476 38.9839 43.9993 38.9476 44.0504 38.9102C44.0969 38.8763 44.143 38.8415 44.1892 38.8069C44.2406 38.7686 44.2918 38.7303 44.3428 38.6911C44.3882 38.6564 44.4331 38.6208 44.4781 38.5852C44.5291 38.545 44.5801 38.505 44.6306 38.4641C44.675 38.4281 44.719 38.3914 44.7631 38.3548C44.7953 38.3281 44.8279 38.3019 44.8601 38.2749L45.4171 38.832V52.4999H45.4182ZM45.6229 33.6765C45.6218 33.6782 45.6204 33.6798 45.6192 33.6816C45.5618 33.7699 45.5033 33.8574 45.4436 33.9443C45.443 33.9449 45.4426 33.9457 45.4421 33.9464C45.3855 34.0287 45.3276 34.1104 45.2688 34.1911C45.2633 34.1987 45.2579 34.2063 45.2526 34.2136C45.1981 34.2882 45.1426 34.3623 45.0863 34.4357C45.0772 34.4477 45.0681 34.4596 45.059 34.4716C45.006 34.5403 44.952 34.6084 44.8977 34.676C44.8852 34.6915 44.8729 34.7072 44.8603 34.7227C44.8088 34.7859 44.7563 34.8486 44.7035 34.9108C44.6875 34.9296 44.672 34.9487 44.656 34.9674C44.6061 35.0256 44.5552 35.083 44.5042 35.1402C44.4848 35.1619 44.4658 35.184 44.4462 35.2057C44.3973 35.2599 44.3474 35.3132 44.2975 35.3664C44.2754 35.3901 44.2538 35.414 44.2315 35.4374C44.173 35.499 44.1137 35.5595 44.0539 35.6197C44.0403 35.6333 44.0273 35.6472 44.0139 35.6608C42.0887 37.5864 39.6727 38.7296 37.1648 39.0906C35.4285 39.3406 33.6481 39.2157 31.9559 38.7156C30.0757 38.1603 28.3043 37.142 26.8232 35.6609C22.0838 30.9214 22.0838 23.2097 26.8232 18.4703C26.8256 18.4679 26.8279 18.4657 26.8302 18.4634C26.9752 18.3187 27.1229 18.1782 27.2733 18.0423C27.2763 18.0395 27.2794 18.037 27.2824 18.0342C31.8918 13.8771 38.9425 13.8765 43.5525 18.0324C43.5564 18.036 43.5605 18.0394 43.5644 18.043C43.7137 18.1779 43.8603 18.3173 44.0043 18.461C44.0075 18.4641 44.0107 18.4671 44.0138 18.4703C44.0449 18.5014 44.075 18.5331 44.1057 18.5645C44.1475 18.6072 44.1896 18.6495 44.2308 18.6928C44.2517 18.7149 44.2721 18.7376 44.293 18.7598C44.3451 18.8154 44.3971 18.8711 44.4481 18.9276C44.461 18.9419 44.4733 18.9564 44.4861 18.9706C44.545 19.0364 44.6035 19.1026 44.6609 19.1697C44.6676 19.1775 44.6739 19.1852 44.6804 19.1929C44.744 19.2677 44.807 19.3429 44.8687 19.419C44.8699 19.4205 44.871 19.4221 44.8723 19.4237C45.1396 19.7535 45.389 20.0963 45.6191 20.4501C45.6222 20.4548 45.6258 20.4591 45.6289 20.4637C46.8946 22.4127 47.5742 24.6867 47.5742 27.0654C47.5742 29.4479 46.8925 31.7253 45.6229 33.6765Z" fill="white"/>
</g>
<defs>
<clipPath id="clip0">
<rect width="55" height="55" fill="white"/>
</clipPath>
</defs>
</svg>
