<svg width="55" height="55" viewBox="0 0 55 55" fill="none" xmlns="http://www.w3.org/2000/svg">
<path d="M53.5819 17.3086C51.6972 15.4237 48.6304 15.4238 46.7451 17.309C46.1652 17.8894 42.4629 21.5947 41.8973 22.1608V9.39147C41.8973 8.10025 41.3945 6.88639 40.4814 5.97341L35.924 1.41582C35.0111 0.502734 33.7971 0 32.5059 0H4.83679C2.17133 0 0.00280762 2.16853 0.00280762 4.83398V50.166C0.00280762 52.8315 2.17133 55 4.83679 55H37.0634C39.7288 55 41.8973 52.8315 41.8973 50.166V35.8393L53.5818 24.1449C55.4711 22.2558 55.4715 19.1979 53.5819 17.3086ZM32.2295 3.22266C32.5339 3.22266 33.1205 3.16991 33.6453 3.69456L38.2028 8.25215C38.7141 8.76358 38.6748 9.324 38.6748 9.66797H32.2295V3.22266ZM38.6747 50.166C38.6747 51.0545 37.9519 51.7773 37.0634 51.7773H4.83679C3.94831 51.7773 3.22546 51.0545 3.22546 50.166V4.83398C3.22546 3.9455 3.94831 3.22266 4.83679 3.22266H29.0067V11.2793C29.0067 12.1692 29.7282 12.8906 30.618 12.8906H38.6747V25.3863C38.6747 25.3863 33.9208 30.1442 33.9206 30.1443L31.643 32.4221C31.4661 32.5989 31.3327 32.8146 31.2537 33.0519L28.9748 39.8882C28.7818 40.4672 28.9325 41.1056 29.3641 41.5371C29.7963 41.9693 30.4349 42.1193 31.013 41.9264L37.8494 39.6477C38.0867 39.5686 38.3024 39.4353 38.4792 39.2584L38.6747 39.0629V50.166ZM35.061 33.5615L37.3397 35.8402L36.4693 36.7107L33.0513 37.85L34.1906 34.4318L35.061 33.5615ZM39.6181 33.561L37.3393 31.2822C38.5528 30.0678 43.942 24.6739 45.085 23.53L47.3637 25.8088L39.6181 33.561ZM51.3027 21.8666L49.6416 23.529L47.3629 21.2503L49.0245 19.5873C49.6531 18.959 50.6751 18.9591 51.3033 19.5873C51.9314 20.2157 51.9347 21.2344 51.3027 21.8666Z" fill="white"/>
<path d="M30.6171 16.1133H8.05853C7.16865 16.1133 6.4472 16.8347 6.4472 17.7246C6.4472 18.6145 7.16865 19.3359 8.05853 19.3359H30.6171C31.507 19.3359 32.2285 18.6145 32.2285 17.7246C32.2285 16.8347 31.507 16.1133 30.6171 16.1133Z" fill="white"/>
<path d="M24.1718 22.5586H8.05853C7.16865 22.5586 6.4472 23.28 6.4472 24.1699C6.4472 25.0598 7.16865 25.7812 8.05853 25.7812H24.1718C25.0617 25.7812 25.7831 25.0598 25.7831 24.1699C25.7831 23.28 25.0617 22.5586 24.1718 22.5586Z" fill="white"/>
<path d="M24.1718 29.0039H8.05853C7.16865 29.0039 6.4472 29.7254 6.4472 30.6152C6.4472 31.5051 7.16865 32.2266 8.05853 32.2266H24.1718C25.0617 32.2266 25.7831 31.5051 25.7831 30.6152C25.7831 29.7254 25.0617 29.0039 24.1718 29.0039Z" fill="white"/>
<path d="M24.1718 35.4492H8.05853C7.16865 35.4492 6.4472 36.1707 6.4472 37.0605C6.4472 37.9504 7.16865 38.6719 8.05853 38.6719H24.1718C25.0617 38.6719 25.7831 37.9504 25.7831 37.0605C25.7831 36.1707 25.0617 35.4492 24.1718 35.4492Z" fill="white"/>
<path d="M30.6171 45.332H20.9492C20.0593 45.332 19.3378 46.0535 19.3378 46.9434C19.3378 47.8332 20.0593 48.5547 20.9492 48.5547H30.6171C31.507 48.5547 32.2285 47.8332 32.2285 46.9434C32.2285 46.0535 31.507 45.332 30.6171 45.332Z" fill="white"/>
</svg>
