<svg width="78" height="78" viewBox="0 0 78 78" fill="none" xmlns="http://www.w3.org/2000/svg">
<path d="M59.45 60.5C57.7104 60.5 56.3 61.9103 56.3 63.65C56.3 65.3897 57.7104 66.8 59.45 66.8C61.1897 66.8 62.6 65.3897 62.6 63.65C62.6 61.9103 61.1897 60.5 59.45 60.5ZM59.45 64.7C58.8702 64.7 58.4 64.2299 58.4 63.65C58.4 63.0701 58.8702 62.6 59.45 62.6C60.0299 62.6 60.5 63.0701 60.5 63.65C60.5 64.2299 60.0299 64.7 59.45 64.7Z" fill="white"/>
<path d="M22.7 60.5C20.9604 60.5 19.55 61.9103 19.55 63.65C19.55 65.3897 20.9604 66.8 22.7 66.8C24.4397 66.8 25.85 65.3897 25.85 63.65C25.85 61.9103 24.4397 60.5 22.7 60.5ZM22.7 64.7C22.1202 64.7 21.65 64.2299 21.65 63.65C21.65 63.0701 22.1202 62.6 22.7 62.6C23.2799 62.6 23.75 63.0701 23.75 63.65C23.75 64.2299 23.2799 64.7 22.7 64.7Z" fill="white"/>
<path d="M67.85 48.95H64.7C63.5402 48.95 62.6 48.0098 62.6 46.85V39.5C62.6 37.1804 60.7196 35.3 58.4 35.3H51.05C49.8902 35.3 48.95 36.2402 48.95 37.4V56.3H46.85V31.1C46.8452 29.7421 45.9691 28.5407 44.6775 28.1211C44.9049 26.9977 44.5911 25.8326 43.8302 24.9753C43.0693 24.118 41.9498 23.6681 40.8073 23.7605C39.8435 22.2731 38.1154 21.4663 36.3563 21.6825C35.5717 20.6161 34.4125 19.8861 33.1118 19.6392C32.6455 17.1548 30.4778 15.3536 27.95 15.35C27.6356 15.3527 27.322 15.3843 27.0134 15.4445C26.4504 14.4479 25.6335 13.6183 24.6456 13.04C25.4178 12.2563 25.8505 11.2002 25.85 10.1C25.85 8.9402 24.9098 8 23.75 8H19.55C18.3902 8 17.45 8.9402 17.45 10.1C17.4506 11.1945 17.8804 12.2452 18.647 13.0264C16.5683 14.3057 15.3159 16.5843 15.35 19.025C15.3558 20.0776 15.5898 21.1165 16.0356 22.07C13.6736 23.1239 12.6066 25.8879 13.648 28.2556C11.5316 28.9781 10.1068 30.9638 10.1 33.2V56.5919C9.45241 56.964 9.05225 57.6531 9.05 58.4V60.5C9.05 61.6598 9.9902 62.6 11.15 62.6H15.434C15.0762 64.922 15.8719 67.2728 17.5665 68.9H9.05C8.4701 68.9 8 69.3701 8 69.95C8 70.5299 8.4701 71 9.05 71H69.95C70.5299 71 71 70.5299 71 69.95C71 69.3701 70.5299 68.9 69.95 68.9H64.5834C66.2781 67.2728 67.0738 64.922 66.716 62.6H67.85C69.5897 62.6 71 61.1897 71 59.45V52.1C71 50.3603 69.5897 48.95 67.85 48.95ZM68.9 52.1V53.15H66.8C66.2201 53.15 65.75 52.6799 65.75 52.1V51.05H67.85C68.4299 51.05 68.9 51.5201 68.9 52.1ZM48.95 60.5H29.3307C28.959 59.7174 28.4522 59.0065 27.8334 58.4H48.95V60.5ZM19.55 10.1H23.75C23.75 11.2598 22.8098 12.2 21.65 12.2C20.4902 12.2 19.55 11.2598 19.55 10.1ZM21.65 14.3C23.0353 14.3289 24.3104 15.0614 25.0331 16.2435C24.1941 16.8048 23.5341 17.5953 23.1315 18.521C20.9949 18.3267 18.9614 19.4764 18.0264 21.4074C17.6463 20.6709 17.4486 19.8538 17.45 19.025C17.3166 16.5645 19.1908 14.456 21.65 14.3ZM17.975 23.75C18.1409 23.7549 18.3062 23.7721 18.4695 23.8014C19.0065 23.8822 19.5164 23.5403 19.6455 23.0129C19.9855 21.6005 21.2473 20.6037 22.7 20.6C22.9899 20.6055 23.2777 20.6518 23.5547 20.7375C23.835 20.8178 24.1362 20.7779 24.3859 20.6274C24.6356 20.4768 24.8115 20.2291 24.8714 19.9437C25.2118 18.3723 26.681 17.3094 28.2801 17.4779C29.8791 17.6464 31.0946 18.9921 31.1 20.6C31.1 21.1799 31.5701 21.65 32.15 21.65C33.3195 21.6563 34.3892 22.31 34.9283 23.3478C35.1611 23.7882 35.6711 24.0044 36.1494 23.8655C36.3845 23.7925 36.6289 23.7536 36.875 23.75C37.9298 23.7481 38.8823 24.3805 39.29 25.3533C39.5062 25.8693 40.089 26.1251 40.6151 25.935C41.1811 25.7528 41.8015 25.9088 42.2139 26.3371C42.6264 26.7655 42.7589 27.3913 42.5555 27.95H15.8897C15.5393 27.4998 15.3493 26.9455 15.35 26.375C15.35 24.9253 16.5253 23.75 17.975 23.75ZM15.35 30.05H43.7C44.2799 30.05 44.75 30.5201 44.75 31.1V56.3H12.2V33.2C12.2 31.4603 13.6103 30.05 15.35 30.05ZM11.15 60.5V58.4H17.5665C16.9478 59.0065 16.441 59.7174 16.0692 60.5H11.15ZM17.45 63.65C17.45 60.7505 19.8005 58.4 22.7 58.4C25.5995 58.4 27.95 60.7505 27.95 63.65C27.95 66.5495 25.5995 68.9 22.7 68.9C19.8019 68.8965 17.4535 66.5481 17.45 63.65ZM27.8334 68.9C29.5281 67.2728 30.3238 64.922 29.966 62.6H52.184C51.8262 64.922 52.6219 67.2728 54.3165 68.9H27.8334ZM59.45 68.9C56.5505 68.9 54.2 66.5495 54.2 63.65C54.2 60.7505 56.5505 58.4 59.45 58.4C62.3495 58.4 64.7 60.7505 64.7 63.65C64.6965 66.5481 62.3481 68.8965 59.45 68.9ZM67.85 60.5H66.0807C64.8686 57.9356 62.2864 56.3001 59.45 56.3001C56.6136 56.3001 54.0314 57.9356 52.8192 60.5H51.05V51.05H57.35C57.9299 51.05 58.4 50.5799 58.4 50C58.4 49.4201 57.9299 48.95 57.35 48.95H51.05V37.4H58.4C59.5598 37.4 60.5 38.3402 60.5 39.5V46.85C60.5072 48.7593 61.8013 50.4236 63.65 50.9009V52.1C63.65 53.8397 65.0603 55.25 66.8 55.25H68.9V59.45C68.9 60.0299 68.4299 60.5 67.85 60.5Z" fill="white"/>
<path d="M37.925 54.1999C39.9546 54.1999 41.6 52.5546 41.6 50.5249V35.8249C41.6 33.7953 39.9546 32.1499 37.925 32.1499C35.8954 32.1499 34.25 33.7953 34.25 35.8249V50.5249C34.25 52.5546 35.8954 54.1999 37.925 54.1999ZM36.35 35.8249C36.35 34.9551 37.0552 34.2499 37.925 34.2499C38.7948 34.2499 39.5 34.9551 39.5 35.8249V50.5249C39.5 51.3948 38.7948 52.0999 37.925 52.0999C37.0552 52.0999 36.35 51.3948 36.35 50.5249V35.8249Z" fill="white"/>
<path d="M28.475 54.1999C30.5047 54.1999 32.15 52.5546 32.15 50.5249V35.8249C32.15 33.7953 30.5047 32.1499 28.475 32.1499C26.4454 32.1499 24.8 33.7953 24.8 35.8249V50.5249C24.8 52.5546 26.4454 54.1999 28.475 54.1999ZM26.9 35.8249C26.9 34.9551 27.6052 34.2499 28.475 34.2499C29.3449 34.2499 30.05 34.9551 30.05 35.8249V50.5249C30.05 51.3948 29.3449 52.0999 28.475 52.0999C27.6052 52.0999 26.9 51.3948 26.9 50.5249V35.8249Z" fill="white"/>
<path d="M19.025 54.1999C21.0546 54.1999 22.7 52.5546 22.7 50.5249V35.8249C22.7 33.7953 21.0546 32.1499 19.025 32.1499C16.9953 32.1499 15.35 33.7953 15.35 35.8249V50.5249C15.35 52.5546 16.9953 54.1999 19.025 54.1999ZM17.45 35.8249C17.45 34.9551 18.1551 34.2499 19.025 34.2499C19.8948 34.2499 20.6 34.9551 20.6 35.8249V50.5249C20.6 51.3948 19.8948 52.0999 19.025 52.0999C18.1551 52.0999 17.45 51.3948 17.45 50.5249V35.8249Z" fill="white"/>
<path d="M57.8908 39.6501C57.3938 39.3515 56.7489 39.5123 56.4502 40.0092L53.3002 45.2592C53.0988 45.581 53.0868 45.9865 53.2688 46.3196C53.4509 46.6528 53.7986 46.8617 54.1782 46.8661C54.5578 46.8705 54.9102 46.6696 55.0999 46.3407L58.2499 41.0907C58.5484 40.5937 58.3877 39.9488 57.8908 39.6501Z" fill="white"/>
<path d="M25.1675 24.7118C25.6984 24.9436 26.3167 24.7016 26.5493 24.171C26.7621 23.905 27.0843 23.7501 27.425 23.7501C27.7656 23.7501 28.0878 23.905 28.3007 24.171C28.4677 24.5539 28.8458 24.8012 29.2635 24.801C29.4081 24.8013 29.5512 24.7712 29.6835 24.7128C29.9388 24.6013 30.1393 24.393 30.2409 24.1336C30.3425 23.8743 30.3369 23.5852 30.2253 23.33C29.7066 22.2651 28.6086 21.6064 27.425 21.65C26.2417 21.6068 25.1442 22.2655 24.6257 23.33C24.394 23.8612 24.6365 24.4796 25.1675 24.7118Z" fill="white"/>
</svg>
