<svg width="57" height="57" viewBox="0 0 57 57" fill="none" xmlns="http://www.w3.org/2000/svg">
<g clip-path="url(#clip0)">
<path d="M54.9026 11.9046L52.057 6.21354C51.9014 5.89119 51.568 5.69111 51.2123 5.69111H45.9102L42.3977 2.17863C42.2199 2.00078 41.9753 1.90074 41.7308 1.90074H36.0397V0.944813C36.0397 0.422387 35.6173 0 35.0949 0H22.7567C22.2343 0 21.8119 0.422387 21.8119 0.944813V1.88963H17.0656C16.8099 1.88963 16.5765 1.98967 16.3987 2.16751L12.8862 5.68H5.68338C5.32768 5.68 4.99422 5.88007 4.8386 6.20242L1.99305 11.9046C1.68181 12.5382 2.13755 13.2718 2.83782 13.2718H5.73895L7.58412 44.6285C7.61747 45.1287 8.02874 45.5178 8.52893 45.5178H13.2752V48.3633C12.1192 49.2303 11.3745 50.6087 11.3745 52.1537C11.3745 54.7769 13.4975 56.9 16.1208 56.9C18.744 56.9 20.8671 54.7769 20.8671 52.1537C20.8671 50.5975 20.1223 49.2303 18.9663 48.3633V45.5178H39.83V48.3633C38.674 49.2303 37.9293 50.6087 37.9293 52.1537C37.9293 54.7769 40.0524 56.9 42.6756 56.9C45.2988 56.9 47.4219 54.7769 47.4219 52.1537C47.4219 50.5975 46.6772 49.2303 45.5212 48.3633V45.5178H50.2675C50.7676 45.5178 51.19 45.1287 51.2123 44.6285L53.0574 13.2718H54.0578C54.7581 13.283 55.2249 12.5382 54.9026 11.9046ZM36.0397 3.79037H41.3306L43.2314 5.69111H36.0397V3.79037ZM23.7015 2.84556V2.51209C23.7015 2.16751 23.9794 1.90074 24.3129 1.90074H33.5165C33.8499 1.90074 34.1278 2.17863 34.1278 2.51209V2.84556V5.07976C34.1278 5.41322 33.8499 5.69111 33.5165 5.69111H24.3129C23.9794 5.69111 23.7015 5.41322 23.7015 5.07976V2.84556ZM17.4546 3.79037H21.8008V5.69111H15.5539L17.4546 3.79037ZM18.9663 52.1648C18.9663 53.7432 17.6881 55.0104 16.1208 55.0104C14.5535 55.0104 13.2752 53.7321 13.2752 52.1648C13.2752 51.1644 13.7865 50.2863 14.5646 49.775C14.6091 49.7528 14.6535 49.7416 14.698 49.7083C15.087 49.486 15.4983 49.3526 15.9318 49.3193H15.9429C15.9985 49.3193 16.0652 49.3081 16.1208 49.3081C16.1764 49.3081 16.2431 49.3081 16.2986 49.3193H16.3097C16.7321 49.3526 17.1545 49.486 17.5436 49.7083C17.588 49.7305 17.6325 49.7528 17.6769 49.775C18.455 50.2863 18.9663 51.1644 18.9663 52.1648ZM15.176 47.5186V45.5289H17.0767V47.5186H17.0656C16.7544 47.4519 16.4431 47.4185 16.1208 47.4185C15.7984 47.4185 15.4761 47.4519 15.176 47.5186ZM45.5212 52.1648C45.5212 53.7432 44.2429 55.0104 42.6756 55.0104C41.1083 55.0104 39.83 53.7321 39.83 52.1648C39.83 51.1644 40.3414 50.2863 41.1194 49.775C41.1639 49.7528 41.2084 49.7416 41.2528 49.7083C41.6419 49.486 42.0531 49.3526 42.4866 49.3193H42.4977C42.5533 49.3193 42.62 49.3081 42.6756 49.3081C42.7312 49.3081 42.7979 49.3081 42.8534 49.3193H42.8646C43.2869 49.3526 43.7093 49.486 44.0984 49.7083C44.1428 49.7305 44.1873 49.7528 44.2318 49.775C45.0098 50.2863 45.5212 51.1644 45.5212 52.1648ZM41.7308 47.5186V45.5289H43.6315V47.5186H43.6204C43.3092 47.4519 42.9979 47.4185 42.6756 47.4185C42.3532 47.4185 42.0309 47.4519 41.7308 47.5186ZM49.3671 43.6281H44.5652H40.7749H18.0104H14.22H9.41817L7.6397 13.283H51.1567L49.3671 43.6281ZM52.1571 11.3822H6.62819H4.37175L6.2725 7.59185H13.2752H22.7567H35.0837H45.5212H50.6231L52.5239 11.3822H52.1571Z" fill="white"/>
<path d="M29.1259 20.1968L26.2803 17.3513C25.9135 16.9845 25.3133 16.9845 24.9353 17.3513C24.5574 17.7181 24.5685 18.3183 24.9353 18.6962L26.1692 19.9301C23.4903 20.0523 21.5451 21.4751 20.2669 23.7204C19.8111 24.5207 19.4777 25.3655 19.2331 26.2103C19.0886 26.7216 19.0108 27.1218 18.9775 27.3774C18.8997 27.8998 19.2665 28.3778 19.7778 28.4445C20.3002 28.5112 20.7782 28.1555 20.8449 27.6331C20.8671 27.4663 20.9338 27.144 21.0561 26.7216C21.2561 26.0102 21.534 25.3099 21.9119 24.6541C22.8679 22.9757 24.2351 21.9531 26.1469 21.8308L24.9353 23.0424C24.5685 23.4092 24.5685 24.0094 24.9353 24.3874C25.3022 24.7653 25.9024 24.7542 26.2803 24.3874L29.1259 21.5418C29.4927 21.175 29.4927 20.5748 29.1259 20.1968Z" fill="white"/>
<path d="M38.8741 29.4115H37.3624C37.9515 28.7668 38.4072 28.0665 38.7296 27.3329C39.6633 25.2098 39.4521 22.9867 38.5517 20.8748C38.2627 20.1968 37.9737 19.6854 37.7626 19.3853C37.4624 18.9518 36.8733 18.8518 36.4398 19.1408C36.0063 19.4409 35.9063 20.03 36.1953 20.4635C36.2286 20.508 36.2842 20.608 36.3731 20.7525C36.5176 21.0082 36.6621 21.2972 36.8066 21.6195C37.518 23.2869 37.6847 24.9986 36.9956 26.5659C36.7733 27.0772 36.4509 27.5774 36.0285 28.0443V26.5548C36.0285 26.0324 35.6062 25.61 35.0837 25.61C34.5613 25.61 34.1389 26.0324 34.1389 26.5548V30.3452C34.1389 30.8787 34.5613 31.3011 35.0837 31.3011H38.8741C39.3965 31.3011 39.8189 30.8787 39.8189 30.3563C39.8189 29.8339 39.3965 29.4115 38.8741 29.4115Z" fill="white"/>
<path d="M33.9833 34.558C33.6832 34.1245 33.0941 34.0244 32.6606 34.3134C32.6161 34.3468 32.5161 34.4024 32.3716 34.4913C32.1159 34.6358 31.8269 34.7803 31.5046 34.9248C29.8261 35.6362 28.1143 35.8029 26.5471 35.1137C26.0358 34.8914 25.5356 34.5691 25.0687 34.1467H26.5582C27.0806 34.1467 27.503 33.7243 27.503 33.2019C27.503 32.6795 27.0806 32.2571 26.5582 32.2571H22.7678C22.2454 32.2571 21.823 32.6795 21.823 33.2019V36.9923C21.823 37.5147 22.2454 37.9371 22.7678 37.9371C23.2902 37.9371 23.7126 37.5147 23.7126 36.9923V35.4806C24.3573 36.0697 25.0576 36.5254 25.7912 36.8478C27.9143 37.7815 30.1374 37.5703 32.2493 36.6699C32.9273 36.3809 33.4386 36.0919 33.7388 35.8807C34.1723 35.5806 34.2723 34.9915 33.9833 34.558Z" fill="white"/>
</g>
<defs>
<clipPath id="clip0">
<rect width="56.9" height="56.9" fill="white"/>
</clipPath>
</defs>
</svg>
